<svg xmlns="http://www.w3.org/2000/svg" width="12" height="7" fill="none"><path fill="#D0B894" fill-rule="evenodd" d="M11.76 1.43 6.54 6.77c-.3.3-.78.3-1.08 0L.24 1.43a.84.84 0 0 1 0-1.17.87.87 0 0 1 1.24 0l4.38 4.47a.2.2 0 0 0 .28 0L10.52.26a.87.87 0 0 1 1.24 0 .84.84 0 0 1 0 1.17Z" clip-rule="evenodd"/><path fill="url(#a)" fill-rule="evenodd" d="M11.76 1.43 6.54 6.77c-.3.3-.78.3-1.08 0L.24 1.43a.84.84 0 0 1 0-1.17.87.87 0 0 1 1.24 0l4.38 4.47a.2.2 0 0 0 .28 0L10.52.26a.87.87 0 0 1 1.24 0 .84.84 0 0 1 0 1.17Z" clip-rule="evenodd"/><defs><linearGradient id="a" x1="5.28" x2=".87" y1="8.26" y2=".48" gradientUnits="userSpaceOnUse"><stop stop-color="#E5A87F"/><stop offset=".18" stop-color="#ECBF98"/><stop offset=".51" stop-color="#F7E6C4"/><stop offset="1" stop-color="#E5A87F"/></linearGradient></defs></svg>